<?xml version="1.0" encoding="UTF-8" standalone="no"?>
<svg
   xmlns:dc="http://purl.org/dc/elements/1.1/"
   xmlns:cc="http://creativecommons.org/ns#"
   xmlns:rdf="http://www.w3.org/1999/02/22-rdf-syntax-ns#"
   xmlns:svg="http://www.w3.org/2000/svg"
   xmlns="http://www.w3.org/2000/svg"
   xmlns:sodipodi="http://sodipodi.sourceforge.net/DTD/sodipodi-0.dtd"
   xmlns:inkscape="http://www.inkscape.org/namespaces/inkscape"
   width="3206.97pt"
   height="3354.13pt"
   viewBox="0 0 3206.97 3354.13"
   version="1.1"
   id="svg105"
   sodipodi:docname="Logo OpenCV2X AdobeStock_322399123.svg"
   inkscape:version="1.0 (4035a4f, 2020-05-01)">
  <metadata
     id="metadata109">
    <rdf:RDF>
      <cc:Work
         rdf:about="">
        <dc:format>image/svg+xml</dc:format>
        <dc:type
           rdf:resource="http://purl.org/dc/dcmitype/StillImage" />
      </cc:Work>
    </rdf:RDF>
  </metadata>
  <sodipodi:namedview
     inkscape:document-rotation="0"
     pagecolor="#ffffff"
     bordercolor="#666666"
     borderopacity="1"
     objecttolerance="10"
     gridtolerance="10"
     guidetolerance="10"
     inkscape:pageopacity="0"
     inkscape:pageshadow="2"
     inkscape:window-width="1680"
     inkscape:window-height="925"
     id="namedview107"
     showgrid="false"
     inkscape:zoom="0.13558916"
     inkscape:cx="1225.8701"
     inkscape:cy="2416.8853"
     inkscape:window-x="1"
     inkscape:window-y="23"
     inkscape:window-maximized="0"
     inkscape:current-layer="svg105" />
  <defs
     id="defs16">
    <rect
       x="428.0375"
       y="3094.5006"
       width="2329.6467"
       height="299.39235"
       id="rect156" />
    <rect
       x="442.07151"
       y="3113.2126"
       width="2427.8848"
       height="233.90027"
       id="rect150" />
    <rect
       x="594.10669"
       y="3576.3352"
       width="334.47739"
       height="98.238114"
       id="rect140" />
    <rect
       x="-308.74836"
       y="3611.4202"
       width="1309.8415"
       height="682.98879"
       id="rect119" />
    <rect
       x="-397.63046"
       y="3999.6946"
       width="1651.3359"
       height="580.07267"
       id="rect113" />
    <clipPath
       id="clip1">
      <path
         d="M 2217 3142 L 2405 3142 L 2405 3354.128906 L 2217 3354.128906 Z M 2217 3142 "
         id="path10" />
    </clipPath>
    <clipPath
       id="clip2">
      <path
         d="M 3069 2889 L 3206.96875 2889 L 3206.96875 3028 L 3069 3028 Z M 3069 2889 "
         id="path13" />
    </clipPath>
  </defs>
  <g
     id="surface1">
    <path
       style="fill:#3d3a3a;fill-opacity:1;fill-rule:nonzero;stroke:none"
       d="M 3079.8594,2784.5703 H 125.69922 c -6.70313,0 -12.13672,-5.4414 -12.13672,-12.1406 0,-6.711 5.43359,-12.1406 12.13672,-12.1406 H 3079.8594 c 6.6992,0 12.1406,5.4296 12.1406,12.1406 0,6.6992 -5.4414,12.1406 -12.1406,12.1406"
       id="path48" />
    <path
       style="fill:#3d3a3a;fill-opacity:1;fill-rule:nonzero;stroke:none"
       d="M 24.277344,2817.0703 H 113.5625 v -89.2812 H 24.277344 Z m 101.421876,24.2813 H 12.140625 C 5.433594,2841.3516 0,2835.9102 0,2829.2109 v -113.5625 c 0,-6.707 5.433594,-12.1367 12.140625,-12.1367 H 125.69922 c 6.70312,0 12.14062,5.4297 12.14062,12.1367 v 113.5625 c 0,6.6993 -5.4375,12.1407 -12.14062,12.1407"
       id="path50" />
    <g
       transform="translate(0,-186)"
       clip-path="url(#clip2)"
       clip-rule="nonzero"
       id="g54">
      <path
         style="fill:#3d3a3a;fill-opacity:1;fill-rule:nonzero;stroke:none"
         d="m 3093.4102,3003.0703 h 89.2812 v -89.2812 h -89.2812 z m 101.4179,24.2813 h -113.5586 c -6.7109,0 -12.1406,-5.4414 -12.1406,-12.1407 v -113.5625 c 0,-6.707 5.4297,-12.1367 12.1406,-12.1367 h 113.5586 c 6.7032,0 12.1407,5.4297 12.1407,12.1367 v 113.5625 c 0,6.6993 -5.4375,12.1407 -12.1407,12.1407"
         id="path52" />
    </g>
    <path
       style="fill:none;stroke-width:425.135;stroke-linecap:round;stroke-linejoin:round;stroke:rgb(24.299622%,23.899841%,23.899841%);stroke-opacity:1;stroke-miterlimit:10;"
       d="M 6899.84375 11459.307813 L 6899.84375 8478.682813 C 6899.84375 8230.20625 7097.851563 8028.8 7342.070313 8028.8 L 10251.015625 8028.8 C 10495.195313 8028.8 10693.203125 8230.20625 10693.203125 8478.682813 L 10693.203125 11459.307813 "
       transform="matrix(0.1,0,0,-0.1,0,3354.13)"
       id="path56" />
    <path
       style="fill:none;stroke-width:425.135;stroke-linecap:round;stroke-linejoin:round;stroke:rgb(24.299622%,23.899841%,23.899841%);stroke-opacity:1;stroke-miterlimit:10;"
       d="M 22073.398438 11459.307813 L 22073.398438 8478.682813 C 22073.398438 8230.20625 22271.40625 8028.8 22515.585938 8028.8 L 25424.492188 8028.8 C 25668.789063 8028.8 25866.796875 8230.20625 25866.796875 8478.682813 L 25866.796875 11459.307813 "
       transform="matrix(0.1,0,0,-0.1,0,3354.13)"
       id="path58" />
    <path
       style="fill:none;stroke-width:425.135;stroke-linecap:round;stroke-linejoin:round;stroke:rgb(24.299622%,23.899841%,23.899841%);stroke-opacity:1;stroke-miterlimit:10;"
       d="M 24759.609375 18320.284375 L 7796.328125 18320.284375 C 6253.671875 18320.284375 5003.164063 17048.01875 5003.164063 15478.604688 L 5003.164063 12042.510938 C 5003.164063 11720.401563 5259.804688 11459.307813 5576.40625 11459.307813 L 26979.492188 11459.307813 C 27296.09375 11459.307813 27552.695313 11720.401563 27552.695313 12042.510938 L 27552.695313 15478.604688 C 27552.695313 17048.01875 26302.1875 18320.284375 24759.609375 18320.284375 Z M 24759.609375 18320.284375 "
       transform="matrix(0.1,0,0,-0.1,0,3354.13)"
       id="path60" />
    <path
       style="fill:none;stroke-width:425.135;stroke-linecap:round;stroke-linejoin:round;stroke:rgb(24.299622%,23.899841%,23.899841%);stroke-opacity:1;stroke-miterlimit:10;"
       d="M 5611.289063 17248.292188 L 5424.648438 17248.292188 C 4260.742188 17248.292188 3317.226563 18208.214063 3317.226563 19392.315625 L 3317.226563 19606.690625 L 7543.554688 19606.690625 "
       transform="matrix(0.1,0,0,-0.1,0,3354.13)"
       id="path62" />
    <path
       style="fill:none;stroke-width:425.135;stroke-linecap:round;stroke-linejoin:round;stroke:rgb(24.299622%,23.899841%,23.899841%);stroke-opacity:1;stroke-miterlimit:10;"
       d="M 24839.6875 19606.690625 L 29027.890625 19606.690625 L 29027.890625 19392.315625 C 29027.890625 18234.385938 28125.585938 17290.792188 26997.304688 17249.698438 "
       transform="matrix(0.1,0,0,-0.1,0,3354.13)"
       id="path64" />
    <path
       style="fill:none;stroke-width:425.135;stroke-linecap:round;stroke-linejoin:round;stroke:rgb(24.299622%,23.899841%,23.899841%);stroke-opacity:1;stroke-miterlimit:10;"
       d="M 6921.953125 18298.8 L 9073.515625 22825.909375 C 9197.226563 23086.182813 9456.40625 23251.6125 9740.625 23251.6125 L 22830.507813 23251.6125 C 23128.007813 23251.6125 23396.71875 23070.596875 23512.8125 22791.885938 L 25384.492188 18298.8 "
       transform="matrix(0.1,0,0,-0.1,0,3354.13)"
       id="path66" />
    <path
       style="fill:none;stroke-width:425.135;stroke-linecap:round;stroke-linejoin:round;stroke:rgb(24.299622%,23.899841%,23.899841%);stroke-opacity:1;stroke-miterlimit:10;"
       d="M 7972.851563 18502.510938 L 9822.304688 22393.995313 L 22712.617188 22393.995313 L 24333.710938 18502.510938 "
       transform="matrix(0.1,0,0,-0.1,0,3354.13)"
       id="path68" />
    <path
       style="fill:none;stroke-width:425.135;stroke-linecap:round;stroke-linejoin:round;stroke:rgb(24.299622%,23.899841%,23.899841%);stroke-opacity:1;stroke-miterlimit:10;"
       d="M 11114.6875 15318.604688 L 9007.304688 15318.604688 C 8076.171875 15318.604688 7321.328125 16086.495313 7321.328125 17033.8 L 11114.6875 17033.8 Z M 11114.6875 15318.604688 "
       transform="matrix(0.1,0,0,-0.1,0,3354.13)"
       id="path70" />
    <path
       style="fill:none;stroke-width:425.135;stroke-linecap:round;stroke-linejoin:round;stroke:rgb(24.299622%,23.899841%,23.899841%);stroke-opacity:1;stroke-miterlimit:10;"
       d="M 23970.117188 15318.604688 L 21862.617188 15318.604688 L 21862.617188 17033.8 L 25656.015625 17033.8 C 25656.015625 16086.495313 24901.210938 15318.604688 23970.117188 15318.604688 Z M 23970.117188 15318.604688 "
       transform="matrix(0.1,0,0,-0.1,0,3354.13)"
       id="path72" />
    <path
       style="fill:none;stroke-width:425.135;stroke-linecap:round;stroke-linejoin:round;stroke:rgb(24.299622%,23.899841%,23.899841%);stroke-opacity:1;stroke-miterlimit:10;"
       d="M 21111.289063 22393.995313 L 19906.40625 21168.214063 "
       transform="matrix(0.1,0,0,-0.1,0,3354.13)"
       id="path74" />
    <path
       style="fill:none;stroke-width:425.135;stroke-linecap:round;stroke-linejoin:round;stroke:rgb(24.299622%,23.899841%,23.899841%);stroke-opacity:1;stroke-miterlimit:10;"
       d="M 22375.78125 22393.995313 L 19846.796875 19821.104688 "
       transform="matrix(0.1,0,0,-0.1,0,3354.13)"
       id="path76" />
    <path
       style="fill:none;stroke-width:425.135;stroke-linecap:round;stroke-linejoin:round;stroke:rgb(24.299622%,23.899841%,23.899841%);stroke-opacity:1;stroke-miterlimit:10;"
       d="M 8183.59375 8243.214063 L 8183.59375 9743.995313 "
       transform="matrix(0.1,0,0,-0.1,0,3354.13)"
       id="path78" />
    <path
       style="fill:none;stroke-width:425.135;stroke-linecap:round;stroke-linejoin:round;stroke:rgb(24.299622%,23.899841%,23.899841%);stroke-opacity:1;stroke-miterlimit:10;"
       d="M 9448.046875 8243.214063 L 9448.046875 9743.995313 "
       transform="matrix(0.1,0,0,-0.1,0,3354.13)"
       id="path80" />
    <path
       style="fill:none;stroke-width:425.135;stroke-linecap:round;stroke-linejoin:round;stroke:rgb(24.299622%,23.899841%,23.899841%);stroke-opacity:1;stroke-miterlimit:10;"
       d="M 23357.109375 8243.214063 L 23357.109375 9743.995313 "
       transform="matrix(0.1,0,0,-0.1,0,3354.13)"
       id="path82" />
    <path
       style="fill:none;stroke-width:425.135;stroke-linecap:round;stroke-linejoin:round;stroke:rgb(24.299622%,23.899841%,23.899841%);stroke-opacity:1;stroke-miterlimit:10;"
       d="M 24621.601563 8243.214063 L 24621.601563 9743.995313 "
       transform="matrix(0.1,0,0,-0.1,0,3354.13)"
       id="path84" />
    <path
       style="fill:none;stroke-width:425.135;stroke-linecap:round;stroke-linejoin:round;stroke:#003b72;stroke-opacity:1;stroke-miterlimit:10"
       d="M 17226.289063 26038.917188 C 17226.289063 25506.104688 16801.71875 25074.1125 16277.890625 25074.1125 C 15754.21875 25074.1125 15329.609375 25506.104688 15329.609375 26038.917188 C 15329.609375 26571.807813 15754.21875 27003.682813 16277.890625 27003.682813 C 16801.71875 27003.682813 17226.289063 26571.807813 17226.289063 26038.917188 Z M 17226.289063 26038.917188 "
       transform="matrix(0.1,0,0,-0.1,0,3354.13)"
       id="path86" />
    <path
       style="fill:none;stroke-width:425.135;stroke-linecap:round;stroke-linejoin:round;stroke:#003b72;stroke-opacity:1;stroke-miterlimit:10"
       d="M 14202.304688 27675.792188 C 15348.710938 28842.08125 17207.1875 28842.08125 18353.515625 27675.792188 "
       transform="matrix(0.1,0,0,-0.1,0,3354.13)"
       id="path88" />
    <path
       style="fill:none;stroke-width:425.135;stroke-linecap:round;stroke-linejoin:round;stroke:#003b72;stroke-opacity:1;stroke-miterlimit:10"
       d="M 13372.109375 28520.51875 C 14976.914063 30153.292188 17578.90625 30153.292188 19183.789063 28520.51875 "
       transform="matrix(0.1,0,0,-0.1,0,3354.13)"
       id="path90" />
    <path
       style="fill:none;stroke-width:425.135;stroke-linecap:round;stroke-linejoin:round;stroke:#003b72;stroke-opacity:1;stroke-miterlimit:10"
       d="M 12541.796875 29365.20625 C 14605.195313 31464.385938 17950.585938 31464.385938 20013.984375 29365.20625 "
       transform="matrix(0.1,0,0,-0.1,0,3354.13)"
       id="path92" />
    <path
       style="fill:none;stroke-width:425.135;stroke-linecap:round;stroke-linejoin:round;stroke:#003b72;stroke-opacity:1;stroke-miterlimit:10"
       d="M 11711.601563 30209.89375 C 14233.515625 32775.596875 18322.304688 32775.596875 20844.296875 30209.89375 "
       transform="matrix(0.1,0,0,-0.1,0,3354.13)"
       id="path94" />
    <path
       style="fill:none;stroke-width:425.135;stroke-linecap:round;stroke-linejoin:round;stroke:#003b72;stroke-opacity:1;stroke-miterlimit:10"
       d="M 10881.289063 31054.503125 C 13861.796875 34086.807813 18694.101563 34086.807813 21674.492188 31054.503125 "
       transform="matrix(0.1,0,0,-0.1,0,3354.13)"
       id="path96" />
    <text
       xml:space="preserve"
       id="text111"
       style="fill:black;fill-opacity:1;line-height:1.25;stroke:none;font-family:sans-serif;font-style:normal;font-weight:normal;font-size:30.00000011999999927px;white-space:pre;shape-inside:url(#rect113);" />
    <text
       xml:space="preserve"
       id="text138"
       style="fill:black;fill-opacity:1;line-height:1.25;stroke:none;font-family:sans-serif;font-style:normal;font-weight:normal;font-size:30.00000011999999927px;white-space:pre;shape-inside:url(#rect140);" />
    <text
       xml:space="preserve"
       style="font-style:normal;font-variant:normal;font-weight:normal;font-stretch:normal;font-size:300px;line-height:1.25;font-family:sans-serif;-inkscape-font-specification:sans-serif;fill:#3d3a3a;fill-opacity:1;stroke:none;stroke-width:0.881576"
       x="761.3606"
       y="3206.5581"
       id="text146"
       transform="scale(1.0181991,0.98212619)"><tspan
         id="tspan144"
         x="761.3606"
         y="3206.5581"
         style="font-style:normal;font-variant:normal;font-weight:normal;font-stretch:normal;font-size:300px;font-family:sans-serif;-inkscape-font-specification:sans-serif;fill:#3d3a3a;fill-opacity:1;stroke-width:0.881576"
         sodipodi:role="line">OPENCV2X</tspan></text>
    <text
       xml:space="preserve"
       id="text148"
       style="fill:black;fill-opacity:1;line-height:1.25;stroke:none;font-family:sans-serif;font-style:normal;font-weight:normal;font-size:30.00000011999999927px;white-space:pre;shape-inside:url(#rect150);" />
    <text
       xml:space="preserve"
       id="text154"
       style="fill:black;fill-opacity:1;line-height:1.25;stroke:none;font-family:sans-serif;font-style:normal;font-weight:normal;font-size:30.00000011999999927px;white-space:pre;shape-inside:url(#rect156);" />
    <text
       transform="scale(0.9728288,1.0279301)"
       id="text146-3"
       y="2064.5173"
       x="1248.6761"
       style="font-style:normal;font-variant:normal;font-weight:normal;font-stretch:normal;font-size:250px;line-height:1.25;font-family:sans-serif;-inkscape-font-specification:sans-serif;fill:#3d3a3a;fill-opacity:1;stroke:none;stroke-width:0.714572"
       xml:space="preserve"><tspan
         sodipodi:role="line"
         style="font-style:normal;font-variant:normal;font-weight:normal;font-stretch:normal;font-size:250px;font-family:sans-serif;-inkscape-font-specification:sans-serif;fill:#3d3a3a;fill-opacity:1;stroke-width:0.714572"
         y="2064.5173"
         x="1248.6761"
         id="tspan144-4">Mode <tspan
   id="tspan881"
   style="fill:#008000">4</tspan></tspan></text>
  </g>
</svg>
